# xmcd CD database file
#
# Track frame offsets:
#	182
#	14657
#	35125
#	51027
#	71102
#	87985
#	103072
#	118755
#	133692
#
# Disc length: 2019 seconds
#
# Revision: 0
# Processed by: cddbd v1.4PL0 Copyright (c) Steve Scherf et al.
# Submitted via: CDex 1.50
#
DISCID=8407e109
DTITLE=Oscar Brown, Jr. - Movin' On
DYEAR=1999
DGENRE=Jazz
TTITLE0=A Dime Away From A Hotdog
TTITLE1=Walk Away
TTITLE2=Feel The Fire
TTITLE3=A Ladiesman
TTITLE4=No Place To Be Somebody
TTITLE5=To Stay In Good With You
TTITLE6=Gang Bang
TTITLE7=First Lady
TTITLE8=Young Man
EXTD=YEAR: 1999
EXTT0=
EXTT1=
EXTT2=
EXTT3=
EXTT4=
EXTT5=
EXTT6=
EXTT7=
EXTT8=
PLAYORDER=
